<svg width="316" height="237" viewBox="0 0 316 237" fill="none" xmlns="http://www.w3.org/2000/svg">
<g id="SvgFive">
<g id="right">
<path id="Vector" d="M210.78 84.4194L238.548 39.5316L263.576 84.4194H210.78Z" fill="#EFEFEF"/>
<path id="Vector_2" d="M222.306 58.3336L239.196 25.4064L254.427 58.3336H222.306Z" fill="#EFEFEF"/>
<path id="Vector_3" d="M206.095 114.321L238.335 54.51L267.391 114.321H206.095Z" fill="#EFEFEF"/>
<path id="Vector_4" d="M199.159 148.133L239.054 71.9137L275.031 148.133H199.159Z" fill="#EFEFEF"/>
<path id="Vector_5" d="M243.454 148.133H230.04V192.823H243.454V148.133Z" fill="#A5A5A5"/>
<path id="Vector_6" opacity="0.32" d="M204.373 136.741L192.152 109.407H200.091L184.734 77.7992H193.226L177.505 47.1867L160.07 77.7992H167.583L150.542 109.407H159.825L146.268 136.741H204.373Z" fill="#C9C9C9"/>
</g>
<path id="Vector_7" d="M182.071 136.741H171.232V172.86H182.071V136.741Z" fill="#A5A5A5"/>
<path id="Vector_8" d="M83.74 85.7782C83.1626 87.8731 82.8677 90.0358 82.8631 92.2088C82.8801 92.467 82.9481 92.7193 83.0632 92.9511C83.1782 93.1829 83.3381 93.3896 83.5334 93.5592C83.7288 93.7289 83.9559 93.8582 84.2015 93.9396C84.4471 94.0211 84.7065 94.053 84.9645 94.0337C85.8025 94.0325 86.622 93.7876 87.3233 93.3289C88.0246 92.8703 88.5775 92.2176 88.9145 91.4504L90.692 88.2904C90.9752 87.6257 91.0468 86.89 90.897 86.1832C90.7471 85.4764 90.3832 84.833 89.8546 84.3404C87.927 82.3733 84.2377 83.4477 83.74 85.7782Z" fill="#F4A28C"/>
<path id="Vector_9" d="M89.902 89.0883L92.9751 101.515L85.9994 102.724L86.5524 93.4333L89.902 89.0883Z" fill="#F4A28C"/>
<path id="Vector_10" d="M83.1791 88.1798L81.8361 89.4596C81.7599 89.533 81.7033 89.6243 81.6716 89.7252C81.6398 89.826 81.6339 89.9333 81.6543 90.037C81.6748 90.1408 81.7209 90.2378 81.7886 90.3191C81.8562 90.4004 81.9432 90.4634 82.0415 90.5024L83.4556 91.0475L83.1791 88.1798Z" fill="#F4A28C"/>
<path id="Vector_11" opacity="0.31" d="M86.5366 93.694C86.5366 93.694 88.9066 92.5959 89.5702 91.6242C89.5702 91.6242 89.428 96.7355 86.268 98.2286L86.5366 93.694Z" fill="#CE8172"/>
<path id="Vector_12" d="M87.6031 89.3174C87.6031 89.3174 87.9033 87.848 88.9935 88.164C90.0837 88.48 89.6571 90.6209 88.1087 90.534L87.6031 89.3174Z" fill="#F4A28C"/>
<path id="Vector_13" d="M92.1219 87.4372L91.3319 88.8434C91.3319 88.8434 90.3444 92.4537 87.9428 94.326C85.5412 96.1983 82.1521 95.8112 81.8598 93.2674C81.528 90.3523 83.4398 91.0475 86.0942 90.8974C88.7486 90.7473 88.3062 87.2713 88.3062 87.2713C87.8208 87.2732 87.3423 87.1561 86.9126 86.9302C86.4829 86.7043 86.1151 86.3766 85.8414 85.9757L84.135 84.846C84.0742 84.1211 84.2959 83.4007 84.7538 82.8354C85.2116 82.2701 85.8702 81.9036 86.5919 81.8124C89.27 81.37 94.6736 83.2502 92.1219 87.4372Z" fill="#24285B"/>
<path id="Vector_14" d="M89.8546 87.7927C89.8546 87.7927 91.7506 86.6709 92.4537 88.1798C93.1568 89.6887 91.0396 90.8737 89.6018 89.9573C89.9401 89.2886 90.0297 88.5214 89.8546 87.7927Z" fill="#F4A28C"/>
<path id="Vector_15" opacity="0.45" d="M158 219.138C223.276 219.138 276.192 211.406 276.192 201.869C276.192 192.331 223.276 184.599 158 184.599C92.7244 184.599 39.8081 192.331 39.8081 201.869C39.8081 211.406 92.7244 219.138 158 219.138Z" fill="#E6E6E6"/>
<path id="Vector_16" d="M104.485 192.823H184.03L139.237 126.25L104.485 192.823Z" fill="#C9C9C9"/>
<path id="Vector_17" d="M139.238 126.25H206.846L248.368 192.823H184.031L139.238 126.25Z" fill="#E6E6E6"/>
<path id="Vector_18" d="M139.238 126.25V192.823H145.439L139.238 126.25Z" fill="#A5A5A5"/>
<path id="Vector_19" d="M129.086 171.359H74.3074V203.725H129.086V171.359Z" fill="#E6E6E6"/>
<path id="Vector_20" opacity="0.25" d="M99.54 203.725L75.05 203.899L74.3548 183.106L76.0217 174.337L86.9237 172.757L109.47 171.177C109.47 171.177 108.072 178.208 102.763 181.534C100.747 182.744 99.0708 184.445 97.891 186.479C96.7111 188.513 96.0662 190.812 96.0166 193.163C95.9301 196.986 97.1757 200.72 99.54 203.725Z" fill="#A5A5A5"/>
<path id="Vector_21" d="M85.1304 199.981C85.1304 199.981 84.1587 202.682 81.7176 202.888C79.2765 203.093 78.6445 205.479 80.8328 206.095C83.0211 206.711 88.6775 203.899 88.6775 203.899L88.5195 200.384L85.1304 199.981Z" fill="#F54B65"/>
<path id="Vector_22" d="M85.4069 102.582L92.3826 101.381C92.3826 101.381 115.577 101.381 119.638 109.352C123.698 117.323 122.845 146.869 109.423 171.138L81.9546 171.928C81.9546 171.928 83.4793 154.097 78.3601 144.388C73.2409 134.679 57.3303 114.068 85.4069 102.582Z" fill="#F54B65"/>
<path id="Vector_23" d="M109.423 171.138L95.9929 169.107C94.0522 168.815 92.0703 168.97 90.1991 169.562C88.3278 170.154 86.6167 171.166 85.1969 172.521C83.7771 173.876 82.6863 175.538 82.0079 177.379C81.3295 179.221 81.0816 181.193 81.2831 183.146L83.0369 200.218H89.6334L89.0567 184.236C89.0232 183.342 89.1884 182.451 89.5406 181.628C89.8928 180.805 90.4231 180.071 91.0934 179.478C91.7636 178.884 92.5571 178.447 93.4166 178.198C94.2761 177.948 95.1803 177.892 96.064 178.034C101.776 178.959 108.862 178.54 109.423 171.138Z" fill="#24285B"/>
<path id="Vector_24" d="M71.4476 199.981C71.4476 199.981 70.4759 202.682 68.0427 202.888C65.6095 203.093 64.9696 205.479 67.1579 206.095C69.3462 206.711 75.0026 203.899 75.0026 203.899L74.8446 200.384L71.4476 199.981Z" fill="#F54B65"/>
<path id="Vector_25" opacity="0.08" d="M107.069 112.18C107.069 112.18 99.4531 118.855 100.986 126.226C102.518 133.597 87.6031 151.956 87.6031 151.956L82.0731 170.19L109.455 171.114L111.366 167.369L107.069 112.18Z" fill="black"/>
<path id="Vector_26" d="M95.748 171.138L82.318 169.107C80.3773 168.815 78.3954 168.97 76.5242 169.562C74.6529 170.154 72.9418 171.166 71.522 172.521C70.1022 173.876 69.0114 175.538 68.333 177.379C67.6546 179.221 67.4067 181.193 67.6082 183.146L69.362 200.218H75.9506L75.3818 184.236C75.3483 183.342 75.5135 182.451 75.8657 181.628C76.2179 180.805 76.7482 180.071 77.4185 179.478C78.0887 178.884 78.8822 178.447 79.7417 178.198C80.6012 177.948 81.5054 177.892 82.3891 178.034C88.1008 178.959 95.1871 178.54 95.748 171.138Z" fill="#24285B"/>
<path id="Vector_27" d="M239.244 195.983L233.477 186.1L240.421 189.632L243.952 178.335L247.009 188.526L254.072 184.599L252.895 191.749L261.443 192.231L255.952 195.983H239.244Z" fill="#C9C9C9"/>
<path id="Vector_28" d="M107.44 111.137C107.863 109.951 108.57 108.886 109.501 108.037C110.431 107.188 111.556 106.581 112.777 106.269C113.997 105.957 115.275 105.949 116.499 106.247C117.723 106.545 118.855 107.139 119.796 107.977C122.758 110.663 125.547 115.356 125.381 123.493C125.025 140.557 123.588 167.519 114.084 168.957C104.58 170.395 98.197 142.792 98.197 142.792L102.668 137.721L108.672 131.969C108.672 131.969 104.43 119.669 107.44 111.137Z" fill="#F54B65"/>
<path id="Vector_29" opacity="0.35" d="M107.44 111.137C107.863 109.951 108.57 108.886 109.501 108.037C110.431 107.188 111.556 106.581 112.777 106.269C113.997 105.957 115.275 105.949 116.499 106.247C117.723 106.545 118.855 107.139 119.796 107.977C122.758 110.663 125.547 115.356 125.381 123.493C125.025 140.557 123.588 167.519 114.084 168.957C104.58 170.395 98.197 142.792 98.197 142.792L102.668 137.721L108.672 131.969C108.672 131.969 104.43 119.669 107.44 111.137Z" fill="white"/>
<path id="Vector_30" d="M84.3404 84.2298L91.8612 87.4925C91.9809 87.5468 92.1153 87.5591 92.2429 87.5276C92.3705 87.4961 92.4837 87.4225 92.5643 87.3187C93.22 86.5287 94.7368 84.3878 94.5393 82.9816C94.2944 81.1883 92.8961 78.0915 90.4629 77.8466C88.5748 77.657 85.7229 76.9776 83.8348 83.1001C83.7645 83.3176 83.7772 83.5534 83.8706 83.7621C83.964 83.9707 84.1314 84.1373 84.3404 84.2298Z" fill="#FFD200"/>
<path id="Vector_31" d="M89.3806 152.691L103.261 138.669L104.138 139.538L111.027 132.57L106.334 127.925L99.4452 134.892L100.322 135.761L86.4418 149.784C84.2012 148.29 81.4846 147.685 78.8218 148.086C76.159 148.487 73.741 149.865 72.0395 151.952C70.338 154.039 69.4749 156.685 69.6186 159.374C69.7624 162.063 70.9026 164.602 72.817 166.496C74.7314 168.39 77.2825 169.502 79.9729 169.617C82.6632 169.732 85.2998 168.84 87.3684 167.116C89.4369 165.392 90.7891 162.959 91.1611 160.292C91.5332 157.625 90.8984 154.915 89.3806 152.691V152.691Z" fill="#FFD200"/>
<path id="Vector_32" d="M80.4299 163.253C82.8907 163.253 84.8855 161.259 84.8855 158.798C84.8855 156.337 82.8907 154.342 80.4299 154.342C77.9691 154.342 75.9743 156.337 75.9743 158.798C75.9743 161.259 77.9691 163.253 80.4299 163.253Z" fill="white"/>
<path id="Vector_33" d="M103.213 140.565C103.213 140.565 104.004 136.07 98.9712 138.392C93.9389 140.715 94.3576 151.364 103.213 140.565Z" fill="#F4A28C"/>
<path id="Vector_34" d="M73.391 157.036C73.391 157.036 80.7301 155.622 81.2041 157.921C81.6781 160.22 80.7064 164.099 74.3074 161.8C67.9084 159.501 73.391 157.036 73.391 157.036Z" fill="#F4A28C"/>
<path id="Vector_35" d="M72.5378 111.461C72.5378 111.461 46.3177 143.851 51.5633 161.508C55.7977 175.728 74.3074 161.8 74.3074 161.8L73.391 157.06L61.2092 159.58L75.208 138.819L72.5378 111.461Z" fill="#F54B65"/>
<path id="Vector_36" d="M126.234 89.9494C136.09 89.9494 144.08 81.9594 144.08 72.1033C144.08 62.2472 136.09 54.2572 126.234 54.2572C116.378 54.2572 108.388 62.2472 108.388 72.1033C108.388 81.9594 116.378 89.9494 126.234 89.9494Z" fill="#24285B"/>
<path id="Vector_37" d="M115.593 78.7156L108.388 92.1298L120.736 83.187L115.593 78.7156Z" fill="#24285B"/>
<g id="rotateLess">
<path id="Vector_38" d="M124.101 75.7057H122.821V66.4153L132.199 63.9979V73.0513H130.919V65.6411L124.101 67.4107V75.7057Z" fill="white"/>
<path id="Vector_39" d="M123.57 79.4214C124.969 78.4237 125.56 76.8516 124.889 75.91C124.218 74.9685 122.539 75.0141 121.139 76.0119C119.739 77.0096 119.149 78.5817 119.82 79.5233C120.491 80.4648 122.17 80.4192 123.57 79.4214Z" fill="#FFD200"/>
<path id="Vector_40" d="M131.321 76.8006C132.72 75.8029 133.311 74.2308 132.64 73.2893C131.969 72.3477 130.29 72.3933 128.89 73.3911C127.491 74.3889 126.9 75.961 127.571 76.9025C128.242 77.844 129.921 77.7984 131.321 76.8006Z" fill="#FFD200"/>
</g>
<path id="Vector_41" opacity="0.08" d="M75.208 138.819C75.208 138.819 66.0282 124.946 71.2106 113.167C71.2106 113.167 64.9617 121.605 62.2362 126.25C62.2362 126.25 62.884 140.897 70.8156 145.321L75.208 138.819Z" fill="black"/>
<path id="Vector_42" d="M32.6507 103.474C34.3741 103.474 35.7712 102.077 35.7712 100.354C35.7712 98.6303 34.3741 97.2332 32.6507 97.2332C30.9273 97.2332 29.5302 98.6303 29.5302 100.354C29.5302 102.077 30.9273 103.474 32.6507 103.474Z" fill="#C9C9C9"/>
<path id="Vector_43" d="M117.678 28.5348C119.402 28.5348 120.799 27.1377 120.799 25.4143C120.799 23.6909 119.402 22.2938 117.678 22.2938C115.955 22.2938 114.558 23.6909 114.558 25.4143C114.558 27.1377 115.955 28.5348 117.678 28.5348Z" fill="#C9C9C9"/>
<path id="Vector_44" d="M294.67 195.944C296.393 195.944 297.79 194.547 297.79 192.823C297.79 191.1 296.393 189.703 294.67 189.703C292.947 189.703 291.549 191.1 291.549 192.823C291.549 194.547 292.947 195.944 294.67 195.944Z" fill="#C9C9C9"/>
<path id="Vector_45" d="M294.67 43.4026C296.393 43.4026 297.79 42.0055 297.79 40.2821C297.79 38.5587 296.393 37.1616 294.67 37.1616C292.947 37.1616 291.549 38.5587 291.549 40.2821C291.549 42.0055 292.947 43.4026 294.67 43.4026Z" fill="#C9C9C9"/>
<path id="Vector_46" opacity="0.36" d="M42.66 29.2853C44.3834 29.2853 45.7805 27.8882 45.7805 26.1648C45.7805 24.4414 44.3834 23.0443 42.66 23.0443C40.9366 23.0443 39.5395 24.4414 39.5395 26.1648C39.5395 27.8882 40.9366 29.2853 42.66 29.2853Z" fill="#C9C9C9"/>
<path id="Vector_47" opacity="0.36" d="M202.564 29.2853C204.287 29.2853 205.684 27.8882 205.684 26.1648C205.684 24.4414 204.287 23.0443 202.564 23.0443C200.84 23.0443 199.443 24.4414 199.443 26.1648C199.443 27.8882 200.84 29.2853 202.564 29.2853Z" fill="#C9C9C9"/>
<path id="Vector_48" opacity="0.36" d="M285.316 112.417C287.04 112.417 288.437 111.02 288.437 109.297C288.437 107.573 287.04 106.176 285.316 106.176C283.593 106.176 282.196 107.573 282.196 109.297C282.196 111.02 283.593 112.417 285.316 112.417Z" fill="#C9C9C9"/>
<path id="Vector_49" opacity="0.36" d="M132.199 107.614C133.922 107.614 135.319 106.217 135.319 104.493C135.319 102.77 133.922 101.373 132.199 101.373C130.475 101.373 129.078 102.77 129.078 104.493C129.078 106.217 130.475 107.614 132.199 107.614Z" fill="#C9C9C9"/>
<path id="Vector_50" opacity="0.36" d="M19.7342 187.807C21.4576 187.807 22.8547 186.41 22.8547 184.686C22.8547 182.963 21.4576 181.566 19.7342 181.566C18.0108 181.566 16.6137 182.963 16.6137 184.686C16.6137 186.41 18.0108 187.807 19.7342 187.807Z" fill="#C9C9C9"/>
</g>
</svg>
