<svg width="316" height="237" viewBox="0 0 316 237" fill="none" xmlns="http://www.w3.org/2000/svg">
<g id="music_two_color 1" filter="url(#filter0_d)">
<path id="Vector" opacity="0.45" d="M165.616 218.293C230.363 218.293 282.852 211.661 282.852 203.48C282.852 195.3 230.363 188.668 165.616 188.668C100.868 188.668 48.3796 195.3 48.3796 203.48C48.3796 211.661 100.868 218.293 165.616 218.293Z" fill="#C4C4C4"/>
<g id="left">
<path id="Vector_2" d="M153.126 127.04C153.126 127.04 158.656 143.401 173.879 141.631C189.102 139.862 188.944 103.435 188.944 103.435L153.126 127.04Z" fill="#F54B65"/>
<path id="Vector_3" opacity="0.08" d="M153.126 127.04C153.126 127.04 158.656 143.401 173.879 141.631C189.102 139.862 188.944 103.435 188.944 103.435L153.126 127.04Z" fill="black"/>
<path id="Vector_4" d="M183.324 55.3824L178.062 56.1988L178.506 59.056L183.767 58.2396L183.324 55.3824Z" fill="#FFD200"/>
<path id="Vector_5" opacity="0.08" d="M183.324 55.3824L178.062 56.1988L178.506 59.056L183.767 58.2396L183.324 55.3824Z" fill="black"/>
<path id="Vector_6" d="M184.581 63.4681L179.319 64.2845L179.763 67.1417L185.024 66.3253L184.581 63.4681Z" fill="#FFD200"/>
<path id="Vector_7" opacity="0.08" d="M184.581 63.4681L179.319 64.2845L179.763 67.1417L185.024 66.3253L184.581 63.4681Z" fill="black"/>
<path id="Vector_8" d="M185.676 70.9064L180.415 71.7229L180.858 74.5801L186.12 73.7636L185.676 70.9064Z" fill="#FFD200"/>
<path id="Vector_9" opacity="0.08" d="M185.676 70.9064L180.415 71.7229L180.858 74.5801L186.12 73.7636L185.676 70.9064Z" fill="black"/>
<path id="Vector_10" d="M187.363 78.217L182.101 79.0334L182.544 81.8907L187.806 81.0742L187.363 78.217Z" fill="#FFD200"/>
<path id="Vector_11" opacity="0.08" d="M187.363 78.217L182.101 79.0334L182.544 81.8907L187.806 81.0742L187.363 78.217Z" fill="black"/>
<path id="Vector_12" d="M188.533 85.6835L183.271 86.5L183.715 89.3572L188.976 88.5408L188.533 85.6835Z" fill="#FFD200"/>
<path id="Vector_13" opacity="0.08" d="M188.533 85.6835L183.271 86.5L183.715 89.3572L188.976 88.5408L188.533 85.6835Z" fill="black"/>
<path id="Vector_14" d="M166.327 34.0569C166.327 34.0569 166.722 39.9819 165.647 43.8924C165.541 44.2719 165.362 44.6268 165.119 44.9368C164.875 45.2467 164.573 45.5057 164.23 45.6987C163.886 45.8917 163.508 46.015 163.117 46.0616C162.726 46.1082 162.329 46.0771 161.95 45.9701C159.991 45.4013 157.502 44.0583 156.902 40.9141L155.235 35.6922C155.006 34.607 155.121 33.4774 155.564 32.4608C156.008 31.4441 156.757 30.5909 157.708 30.02C161.097 27.7053 166.263 30.4308 166.327 34.0569Z" fill="#F4A28C"/>
<path id="Vector_15" d="M156.278 35.471L149.618 53.7516L159.951 56.7062L160.639 42.581L156.278 35.471Z" fill="#F4A28C"/>
<path id="Vector_16" d="M154.627 33.0615L154.374 40.685C155.239 41.0394 156.2 41.0827 157.093 40.8075C157.986 40.5323 158.756 39.9557 159.272 39.1761C159.818 38.3796 160.12 37.4407 160.139 36.475C160.159 35.5093 159.896 34.559 159.382 33.7409C161.903 34.2623 165.355 33.1405 166.398 33.1089C167.014 33.1089 166.271 33.5671 166.398 30.8811C166.084 30.0268 165.583 29.2531 164.933 28.6164C164.282 27.9796 163.498 27.4957 162.637 27.1997C159.627 26.1174 154.366 26.86 154.627 33.0615Z" fill="#24285B"/>
<path id="Vector_17" d="M166.382 37.6277L168.08 40.5428L166.169 40.9852L166.382 37.6277Z" fill="#F4A28C"/>
<path id="Vector_18" d="M143.543 196.331C143.543 196.331 143.543 199.87 146.253 201.142C148.962 202.414 148.725 205.447 145.921 205.234C143.116 205.021 137.768 199.364 137.768 199.364L139.443 195.359L143.543 196.331Z" fill="#F54B65"/>
<path id="Vector_19" d="M184.544 198.393C184.544 198.393 185.184 201.869 188.107 202.611C191.03 203.354 191.338 206.38 188.541 206.696C185.745 207.012 179.433 202.453 179.433 202.453L180.333 198.203L184.544 198.393Z" fill="#F54B65"/>
<path id="Vector_20" d="M149.618 32.232C149.618 32.232 163.34 37.8331 172.631 35.471L169.06 33.5118C168.459 33.1789 167.937 32.7211 167.528 32.1692C167.119 31.6172 166.833 30.984 166.69 30.3123L165.307 23.9449L155.156 24.9798L154.714 28.5743C154.621 29.3013 154.312 29.9835 153.825 30.5317C153.339 31.08 152.699 31.4688 151.988 31.6474L149.618 32.232Z" fill="#24285B"/>
<path id="Vector_21" d="M134.245 51.0735C136.236 51.4369 138.242 51.7687 140.257 51.9899C146.821 52.7246 161.278 54.7786 173.192 59.5423C189.158 65.9255 192.807 106.942 158.83 135.248H123.485C123.485 135.248 101.594 90.85 107.519 67.6082C112.267 48.98 128.099 49.9517 134.245 51.0735Z" fill="#F54B65"/>
<path id="Vector_22" d="M123.485 135.248L140.375 157.321C143.009 160.759 144.725 164.811 145.362 169.095C145.999 173.379 145.536 177.755 144.017 181.811L138.993 195.241L145.376 198.235L153.955 181.779C156.385 177.124 157.683 171.962 157.744 166.712C157.804 161.461 156.625 156.271 154.303 151.562L148.962 140.731L158.83 135.28L123.485 135.248Z" fill="#24285B"/>
<path id="Vector_23" d="M166.176 57.1012C166.176 57.1012 176.083 105.757 156.167 135.248H158.829C158.829 135.248 177.75 114.708 171.525 58.3257C171.525 58.3257 168.27 57.67 166.176 57.1012Z" fill="#24285B"/>
<path id="Vector_24" d="M134.245 51.0735C134.245 51.0735 164.02 80.5405 139.443 135.248H134.245C134.245 135.248 161.326 79.79 126.4 50.6548C129.006 50.0955 131.713 50.24 134.245 51.0735Z" fill="#24285B"/>
<path id="Vector_25" opacity="0.08" d="M130.137 61.62C130.137 61.62 138.305 75.9901 136.251 89.2147C134.197 102.439 170.917 62.7576 170.917 62.7576L176.17 83.6215C176.17 83.6215 168.649 123.161 123.501 135.248L118.5 123.848C118.5 123.848 112.614 80.0744 130.137 61.62Z" fill="black"/>
<path id="Vector_26" d="M165.284 43.1972L169.66 42.1386C170.71 41.8861 171.8 41.8513 172.863 42.0364C173.927 42.2214 174.941 42.6225 175.843 43.2147C176.745 43.8069 177.517 44.5777 178.11 45.4796C178.703 46.3815 179.105 47.3954 179.29 48.4586L189.995 109.447C190.223 110.725 190.824 111.906 191.723 112.843C192.622 113.78 193.778 114.429 195.045 114.71C196.313 114.991 197.635 114.889 198.845 114.42C200.055 113.95 201.099 113.132 201.845 112.069L209.524 101.073L236.21 134.569L211.72 144.918C207.618 146.651 203.156 147.359 198.719 146.981C194.282 146.602 190.004 145.147 186.255 142.743C182.507 140.339 179.401 137.058 177.206 133.183C175.011 129.309 173.793 124.958 173.658 120.507L171.43 49.2723C171.4 48.1572 170.962 47.0918 170.199 46.278C169.436 45.4641 168.401 44.9583 167.29 44.8562L165.355 44.6666C165.204 44.6159 165.073 44.5209 164.977 44.3942C164.881 44.2675 164.826 44.1148 164.818 43.9562C164.81 43.7975 164.851 43.6402 164.934 43.5048C165.017 43.3694 165.139 43.2622 165.284 43.1972Z" fill="#FFD200"/>
<path id="Vector_27" d="M158.83 135.248L185.65 198.203H178.358L144.617 140.699L158.83 135.248Z" fill="#24285B"/>
<path id="Vector_28" d="M143.78 52.4244L150.163 48.5376L155.456 54.4073L151.759 59.0841L143.78 52.4244Z" fill="#24285B"/>
<path id="Vector_29" d="M155.456 54.4073L160.307 51.5633L162.519 56.3349L158.047 59.9294L155.456 54.4073Z" fill="#24285B"/>
<path id="Vector_30" d="M155.18 68.8959C156.314 68.8959 157.234 67.9763 157.234 66.8419C157.234 65.7075 156.314 64.7879 155.18 64.7879C154.045 64.7879 153.126 65.7075 153.126 66.8419C153.126 67.9763 154.045 68.8959 155.18 68.8959Z" fill="white"/>
<path id="Vector_31" d="M157.234 99.6427C158.368 99.6427 159.288 98.7231 159.288 97.5887C159.288 96.4543 158.368 95.5347 157.234 95.5347C156.099 95.5347 155.18 96.4543 155.18 97.5887C155.18 98.7231 156.099 99.6427 157.234 99.6427Z" fill="white"/>
<path id="Vector_32" d="M153.742 120.744C154.876 120.744 155.796 119.824 155.796 118.69C155.796 117.555 154.876 116.636 153.742 116.636C152.608 116.636 151.688 117.555 151.688 118.69C151.688 119.824 152.608 120.744 153.742 120.744Z" fill="white"/>
<path id="Vector_33" d="M153.126 85.6755C154.26 85.6755 155.18 84.7559 155.18 83.6215C155.18 82.4871 154.26 81.5675 153.126 81.5675C151.991 81.5675 151.072 82.4871 151.072 83.6215C151.072 84.7559 151.991 85.6755 153.126 85.6755Z" fill="white"/>
<path id="Vector_34" d="M164.707 62.41C164.707 62.41 168.657 55.7819 172.101 56.09C175.546 56.3981 174.021 64.859 167.472 67.15L164.707 62.41Z" fill="#F4A28C"/>
<path id="Vector_35" d="M131.559 70.6023C133.929 57.1723 117.473 48.9405 108.246 58.9419C104.367 63.1447 101.594 69.1566 101.594 77.7834C101.594 106.287 101.823 122.703 118.468 123.848C135.114 124.994 168.333 66.8419 168.333 66.8419L164.075 61.62C164.075 61.62 133.06 91.719 121.889 98.7895C126.505 89.9306 129.764 80.429 131.559 70.6023Z" fill="#F54B65"/>
<path id="Vector_36" opacity="0.46" d="M131.559 70.6023C133.929 57.1723 117.473 48.9405 108.246 58.9419C104.367 63.1447 101.594 69.1566 101.594 77.7834C101.594 106.287 101.823 122.703 118.468 123.848C135.114 124.994 168.333 66.8419 168.333 66.8419L164.075 61.62C164.075 61.62 133.06 91.719 121.889 98.7895C126.505 89.9306 129.764 80.429 131.559 70.6023Z" fill="white"/>
<path id="Vector_37" d="M236.669 134.201C240.395 131.483 237.672 121.408 230.588 111.697C223.504 101.986 214.741 96.3169 211.016 99.0347C207.29 101.753 210.012 111.828 217.096 121.539C224.18 131.25 232.943 136.919 236.669 134.201Z" fill="#FFD200"/>
<path id="Vector_38" opacity="0.46" d="M236.669 134.201C240.395 131.483 237.672 121.408 230.588 111.697C223.504 101.986 214.741 96.3169 211.016 99.0347C207.29 101.753 210.012 111.828 217.096 121.539C224.18 131.25 232.943 136.919 236.669 134.201Z" fill="white"/>
<path id="Vector_39" d="M233.93 128.836C235.734 127.52 233.001 120.7 227.825 113.605C222.649 106.509 216.99 101.824 215.186 103.141C213.381 104.458 216.114 111.277 221.29 118.372C226.466 125.468 232.125 130.153 233.93 128.836Z" fill="#FFD200"/>
<path id="Vector_40" opacity="0.08" d="M233.93 128.836C235.734 127.52 233.001 120.7 227.825 113.605C222.649 106.509 216.99 101.824 215.186 103.141C213.381 104.458 216.114 111.277 221.29 118.372C226.466 125.468 232.125 130.153 233.93 128.836Z" fill="black"/>
<path id="Vector_41" d="M154.729 28.1398C158.543 28.8641 162.439 29.0449 166.303 28.677L167.354 31.9397C167.354 31.9397 163.325 32.7297 153.742 30.5888L154.729 28.1398Z" fill="#F54B65"/>
<path id="Vector_42" d="M188.944 103.435C188.944 103.435 192.981 96.3247 188.944 93.4412C184.907 90.5577 182.648 100.046 188.944 103.435Z" fill="#F4A28C"/>
<path id="Vector_43" opacity="0.16" d="M190.39 136.796C190 136.697 189.587 136.74 189.226 136.919C188.865 137.098 188.58 137.401 188.423 137.772C188.267 138.143 188.248 138.558 188.371 138.941C188.494 139.325 188.751 139.651 189.094 139.862C192.951 142.293 197.538 143.297 202.058 142.698C207.547 141.984 212.883 140.383 217.858 137.958C218.42 137.677 218.906 137.265 219.273 136.756C219.64 136.246 219.878 135.656 219.967 135.034C220.055 134.412 219.992 133.779 219.781 133.187C219.571 132.595 219.22 132.064 218.759 131.638C218.259 131.175 217.67 130.819 217.028 130.591C216.386 130.363 215.705 130.268 215.025 130.311C214.345 130.355 213.681 130.536 213.074 130.845C212.466 131.153 211.928 131.581 211.491 132.104C208.56 135.769 202.477 139.735 190.39 136.796Z" fill="white"/>
</g>
<g id="rotate">
<path id="Vector_44" d="M250.501 143.835C250.622 143.475 250.88 143.177 251.22 143.008C251.56 142.838 251.954 142.81 252.314 142.931C252.675 143.051 252.972 143.31 253.142 143.65C253.312 143.99 253.339 144.383 253.219 144.744L246.33 165.371C248.573 165.683 250.631 166.784 252.136 168.475C255.044 171.525 255.857 175.475 253.953 177.292C252.049 179.109 248.139 178.121 245.263 175.072C243.043 172.702 242.056 169.897 242.554 167.875C242.55 167.804 242.55 167.733 242.554 167.662L250.501 143.835Z" fill="#E6E6E6"/>
<path id="Vector_45" d="M251.733 42.0833L236.676 41.1353L236.431 40.1557C236.352 39.8717 236.164 39.63 235.909 39.4824C235.653 39.3348 235.35 39.2929 235.064 39.3657C234.781 39.4435 234.539 39.6295 234.392 39.8836C234.244 40.1377 234.202 40.4397 234.274 40.7245L238.446 57.2592C236.666 57.361 234.983 58.1016 233.706 59.3448C231.249 61.5568 230.38 64.5904 231.762 66.123C233.145 67.6556 236.257 67.1105 238.714 64.9064C240.587 63.2158 241.527 61.0512 241.25 59.4317C241.258 59.3767 241.258 59.3208 241.25 59.2658L238.39 47.9214L251.733 42.0833Z" fill="#E6E6E6"/>
<path id="Vector_46" d="M97.0436 145.629L79.0632 144.38L78.7788 143.211C78.7373 143.041 78.6626 142.88 78.559 142.738C78.4553 142.596 78.3247 142.476 78.1747 142.385C78.0247 142.293 77.8582 142.233 77.6846 142.206C77.5111 142.179 77.3339 142.186 77.1633 142.228C76.9926 142.269 76.8318 142.344 76.69 142.447C76.5482 142.551 76.4282 142.682 76.3369 142.832C76.2456 142.982 76.1847 143.148 76.1577 143.322C76.1307 143.495 76.1382 143.673 76.1797 143.843L81.0303 163.593C78.9124 163.712 76.9065 164.583 75.3739 166.05C72.4272 168.673 71.3686 172.291 73.0039 174.132C74.6392 175.972 78.3601 175.348 81.3068 172.726C83.5583 170.727 84.6959 168.144 84.3878 166.216C84.3917 166.15 84.3917 166.084 84.3878 166.018L81.054 152.47L97.0436 145.629Z" fill="#E6E6E6"/>
<path id="Vector_47" d="M79.0632 48.7193L66.2889 43.45C66.0519 43.3385 65.7805 43.3249 65.5335 43.4121C65.2866 43.4994 65.084 43.6805 64.9696 43.9161L58.5153 57.5041C57.2484 56.5811 55.6934 56.1412 54.1308 56.2638C51.2236 56.3902 48.9247 57.9623 49.0037 59.7872C49.0827 61.6121 51.5001 62.9472 54.4152 62.8603C56.6351 62.7655 58.4916 61.8254 59.2184 60.5693C59.2184 60.5693 59.2816 60.4982 59.3053 60.4508L65.017 48.427L76.077 52.7246L71.2896 62.7734C70.0252 61.8516 68.4731 61.4117 66.913 61.5331C63.9979 61.6595 61.699 63.2316 61.778 65.0565C61.857 66.8814 64.2823 68.256 67.1895 68.1296C69.4094 68.0348 71.2659 67.0947 71.9927 65.8386C71.9927 65.8386 72.0559 65.7675 72.0796 65.7201L79.5372 50.0386C79.6482 49.8006 79.6606 49.5285 79.5718 49.2814C79.4831 49.0343 79.3002 48.8322 79.0632 48.7193Z" fill="#E6E6E6"/>
</g>
<path id="Vector_48" opacity="0.49" d="M117.117 25.675C119.19 25.675 120.87 23.995 120.87 21.9225C120.87 19.8501 119.19 18.17 117.117 18.17C115.045 18.17 113.365 19.8501 113.365 21.9225C113.365 23.995 115.045 25.675 117.117 25.675Z" fill="#E6E6E6"/>
<path id="Vector_49" opacity="0.49" d="M258.591 106.239C260.092 106.239 261.308 105.022 261.308 103.522C261.308 102.021 260.092 100.804 258.591 100.804C257.09 100.804 255.873 102.021 255.873 103.522C255.873 105.022 257.09 106.239 258.591 106.239Z" fill="#E6E6E6"/>
<path id="Vector_50" opacity="0.49" d="M195.628 167.867C196.666 167.867 197.508 167.025 197.508 165.987C197.508 164.948 196.666 164.107 195.628 164.107C194.589 164.107 193.747 164.948 193.747 165.987C193.747 167.025 194.589 167.867 195.628 167.867Z" fill="#E6E6E6"/>
<path id="Vector_51" opacity="0.49" d="M115.245 167.867C116.284 167.867 117.125 167.025 117.125 165.987C117.125 164.948 116.284 164.107 115.245 164.107C114.207 164.107 113.365 164.948 113.365 165.987C113.365 167.025 114.207 167.867 115.245 167.867Z" fill="#E6E6E6"/>
<path id="Vector_52" opacity="0.49" d="M201.379 39.5079C202.932 39.5079 204.191 38.2487 204.191 36.6955C204.191 35.1422 202.932 33.8831 201.379 33.8831C199.826 33.8831 198.567 35.1422 198.567 36.6955C198.567 38.2487 199.826 39.5079 201.379 39.5079Z" fill="#E6E6E6"/>
<path id="Vector_53" opacity="0.49" d="M61.8412 112.496C64.9869 112.496 67.5371 109.946 67.5371 106.8C67.5371 103.654 64.9869 101.104 61.8412 101.104C58.6954 101.104 56.1453 103.654 56.1453 106.8C56.1453 109.946 58.6954 112.496 61.8412 112.496Z" fill="#E6E6E6"/>
</g>
<defs>
<filter id="filter0_d" x="-4" y="0" width="324" height="245" filterUnits="userSpaceOnUse" color-interpolation-filters="sRGB">
<feFlood flood-opacity="0" result="BackgroundImageFix"/>
<feColorMatrix in="SourceAlpha" type="matrix" values="0 0 0 0 0 0 0 0 0 0 0 0 0 0 0 0 0 0 127 0"/>
<feOffset dy="4"/>
<feGaussianBlur stdDeviation="2"/>
<feColorMatrix type="matrix" values="0 0 0 0 0 0 0 0 0 0 0 0 0 0 0 0 0 0 0.25 0"/>
<feBlend mode="normal" in2="BackgroundImageFix" result="effect1_dropShadow"/>
<feBlend mode="normal" in="SourceGraphic" in2="effect1_dropShadow" result="shape"/>
</filter>
</defs>
</svg>
