<svg width="316" height="237" viewBox="0 0 316 237" fill="none" xmlns="http://www.w3.org/2000/svg">
<g id="rocket_launch_two_color 1">
<g id="fade">
<path id="Vector" opacity="0.42" d="M71.5661 220.844C71.5661 220.844 46.0412 222.63 35.55 218.324C25.0588 214.019 32.5954 201.655 42.8101 198.962C53.0248 196.268 59.2184 211.064 63.7846 197.382C68.3508 183.699 80.2798 176.881 87.9033 186.187C95.5268 195.493 103.324 198.456 111.39 190.137C119.456 181.818 126.89 188.612 130.168 200.802C133.447 212.992 171.359 189.6 185.887 194.166C200.415 198.732 211.436 212.186 220.307 197.666C229.179 183.146 239.67 179.377 245.587 187.981C251.504 196.584 253.385 206.806 263.876 199.041C274.367 191.275 288.619 198.251 284.582 207.375C280.545 216.5 253.511 219.604 253.511 219.604C253.511 219.604 96.5538 211.799 71.5661 220.844Z" fill="#E6E6E6"/>
<path id="Vector_2" d="M148.093 174.59C148.093 174.59 153.75 193.495 142.721 199.08C131.693 204.665 125.041 195.967 113.539 203.63C102.036 211.293 108.096 184.67 90.5498 185.879C73.0039 187.088 79.5846 201 79.5846 201C79.5846 201 64.464 186.235 56.6272 199.08C48.7904 211.925 52.5745 223.997 87.9033 220.363C123.232 216.729 149.152 221.674 179.757 221.018C210.361 220.363 266.657 226.414 269.659 209.476C272.661 192.539 256.955 185.026 240.61 194.522C224.265 204.018 227.006 182.134 208.094 192.152C189.181 202.169 166.808 213.703 161.089 169.4L148.093 174.59Z" fill="#E6E6E6"/>
</g>
<path id="Vector_3" d="M109.597 24.1819C69.1013 33.1089 42.1228 72.1902 49.5962 112.97C53.1591 132.436 64.6062 151.751 93.3701 160.765C162.4 182.411 240.207 171.612 253.93 129.007C267.652 86.4023 258.765 58.9735 225.284 37.5961C203.654 23.7869 151.901 14.8599 109.597 24.1819Z" fill="#24285B"/>
<g id="buttom">
<path id="Vector_4" d="M136.401 105.512L104.011 141.655H139.293L136.401 105.512Z" fill="#F54B65"/>
<path id="Vector_5" d="M175.957 105.512L208.347 141.655H173.065L175.957 105.512Z" fill="#F54B65"/>
<path id="Vector_6" d="M155.48 47.6765V47.4632L155.369 47.5738L155.259 47.4632V47.6844C152.446 50.5126 124.212 81.4964 140.478 169.4H171.746C188.02 81.37 158.371 50.4494 155.48 47.6765Z" fill="#F54B65"/>
<path id="Vector_7" opacity="0.11" d="M174.4 92.3115L175.301 98.5367C166.852 102.042 157.697 103.512 148.575 102.826C146.142 102.607 143.693 103.005 141.455 103.986C139.218 104.967 137.265 106.497 135.777 108.435C135.777 108.435 136.67 95.59 137.31 92.6749L174.4 92.3115Z" fill="#3B1E59"/>
<path id="Vector_8" opacity="0.7" d="M155.48 47.6765V47.4632L155.369 47.5738L155.259 47.4632V47.6844C152.446 50.5126 124.212 81.4964 140.478 169.4H171.746C188.02 81.37 158.371 50.4494 155.48 47.6765Z" fill="white"/>
<path id="Vector_9" opacity="0.08" d="M144.499 121.162L135.809 130.95C136.017 139.669 136.897 148.358 138.44 156.941L160.41 140.62L144.499 121.162Z" fill="black"/>
<path id="Vector_10" d="M139.293 162.629L140.478 169.4H172.03L173.271 162.629H139.293Z" fill="#FFD200"/>
<path id="Vector_11" d="M138.85 84.6327L138.787 84.8223C137.901 87.147 137.433 89.6103 137.405 92.0982L137.31 92.6749C137.31 92.6749 154.856 102.645 174.4 92.3115C174.497 91.9671 174.542 91.6104 174.535 91.2529C174.463 88.9737 173.964 86.7282 173.065 84.6327H138.85Z" fill="#FFD200"/>
<path id="Vector_12" d="M139.293 162.629L140.478 169.4H172.03L173.271 162.629H139.293Z" fill="#F54B65"/>
<path id="Vector_13" d="M138.85 84.6327L138.787 84.8223C137.901 87.147 137.433 89.6103 137.405 92.0982L137.31 92.6749C137.31 92.6749 154.856 102.645 174.4 92.3115C174.497 91.9671 174.542 91.6104 174.535 91.2529C174.463 88.9737 173.964 86.7282 173.065 84.6327H138.85Z" fill="#F54B65"/>
<path id="Vector_14" opacity="0.08" d="M139.293 162.629L140.478 169.4H172.03L173.271 162.629H139.293Z" fill="black"/>
<path id="Vector_15" opacity="0.08" d="M138.85 84.6327L138.787 84.8223C137.901 87.147 137.433 89.6103 137.405 92.0982L137.31 92.6749C137.31 92.6749 154.856 102.645 174.4 92.3115C174.497 91.9671 174.542 91.6104 174.535 91.2529C174.463 88.9737 173.964 86.7282 173.065 84.6327H138.85Z" fill="black"/>
<path id="Vector_16" d="M138.85 84.6327C138.85 84.6327 155.44 92.351 173.065 84.6327C173.065 84.6327 170.593 60.4429 158.845 46.531C158.491 46.1127 158.048 45.7781 157.548 45.5514C157.049 45.3247 156.505 45.2114 155.957 45.2197C155.409 45.228 154.869 45.3577 154.377 45.5995C153.884 45.8412 153.452 46.189 153.11 46.6179C149.223 51.4922 142.413 62.7497 138.85 84.6327Z" fill="#F54B65"/>
<path id="Vector_17" d="M156.349 141.655C163.875 141.655 169.976 135.554 169.976 128.027C169.976 120.501 163.875 114.4 156.349 114.4C148.823 114.4 142.721 120.501 142.721 128.027C142.721 135.554 148.823 141.655 156.349 141.655Z" fill="#F54B65"/>
<path id="Vector_18" d="M156.349 136.346C160.943 136.346 164.668 132.622 164.668 128.027C164.668 123.433 160.943 119.709 156.349 119.709C151.755 119.709 148.03 123.433 148.03 128.027C148.03 132.622 151.755 136.346 156.349 136.346Z" fill="#24285B"/>
<path id="Vector_19" opacity="0.16" d="M158.3 128.027C159.919 128.027 161.231 126.715 161.231 125.097C161.231 123.478 159.919 122.166 158.3 122.166C156.682 122.166 155.369 123.478 155.369 125.097C155.369 126.715 156.682 128.027 158.3 128.027Z" fill="white"/>
<path id="Vector_20" d="M140.478 169.4L121.652 192.152L161.089 178.595V169.4H140.478Z" fill="#F54B65"/>
<path id="Vector_21" d="M171.88 169.4L190.706 192.152L151.277 178.595V169.4H171.88Z" fill="#F54B65"/>
</g>
<path id="Vector_22" d="M75.0658 113.965C76.4751 113.965 77.6175 112.823 77.6175 111.414C77.6175 110.004 76.4751 108.862 75.0658 108.862C73.6565 108.862 72.5141 110.004 72.5141 111.414C72.5141 112.823 73.6565 113.965 75.0658 113.965Z" fill="white"/>
<path id="Vector_23" d="M132.902 38.1333C134.311 38.1333 135.453 36.9909 135.453 35.5816C135.453 34.1723 134.311 33.0299 132.902 33.0299C131.492 33.0299 130.35 34.1723 130.35 35.5816C130.35 36.9909 131.492 38.1333 132.902 38.1333Z" fill="white"/>
<path id="Vector_24" d="M199.183 90.8737C200.592 90.8737 201.734 89.7313 201.734 88.322C201.734 86.9127 200.592 85.7703 199.183 85.7703C197.773 85.7703 196.631 86.9127 196.631 88.322C196.631 89.7313 197.773 90.8737 199.183 90.8737Z" fill="white"/>
<path id="Vector_25" d="M190.587 41.3881C191.264 41.3881 191.812 40.8399 191.812 40.1636C191.812 39.4873 191.264 38.9391 190.587 38.9391C189.911 38.9391 189.363 39.4873 189.363 40.1636C189.363 40.8399 189.911 41.3881 190.587 41.3881Z" fill="white"/>
<path id="Vector_26" d="M245.192 102.818C245.869 102.818 246.417 102.27 246.417 101.594C246.417 100.918 245.869 100.37 245.192 100.37C244.516 100.37 243.968 100.918 243.968 101.594C243.968 102.27 244.516 102.818 245.192 102.818Z" fill="white"/>
<path id="Vector_27" d="M217.89 152.588C218.566 152.588 219.114 152.04 219.114 151.364C219.114 150.688 218.566 150.139 217.89 150.139C217.214 150.139 216.665 150.688 216.665 151.364C216.665 152.04 217.214 152.588 217.89 152.588Z" fill="white"/>
<path id="Vector_28" d="M119.401 155.914C120.077 155.914 120.625 155.366 120.625 154.69C120.625 154.014 120.077 153.465 119.401 153.465C118.724 153.465 118.176 154.014 118.176 154.69C118.176 155.366 118.724 155.914 119.401 155.914Z" fill="white"/>
<path id="Vector_29" opacity="0.08" d="M102.882 95.3214C116.839 95.3214 128.154 84.0067 128.154 70.0493C128.154 56.0919 116.839 44.7772 102.882 44.7772C88.9243 44.7772 77.6096 56.0919 77.6096 70.0493C77.6096 84.0067 88.9243 95.3214 102.882 95.3214Z" fill="white"/>
<path id="Vector_30" d="M102.882 90.0837C113.946 90.0837 122.916 81.114 122.916 70.0493C122.916 58.9846 113.946 50.0149 102.882 50.0149C91.817 50.0149 82.8473 58.9846 82.8473 70.0493C82.8473 81.114 91.817 90.0837 102.882 90.0837Z" fill="#FFD200"/>
<path id="Vector_31" opacity="0.08" d="M95.9297 65.4515C98.2508 65.4515 100.132 63.5698 100.132 61.2487C100.132 58.9276 98.2508 57.0459 95.9297 57.0459C93.6086 57.0459 91.7269 58.9276 91.7269 61.2487C91.7269 63.5698 93.6086 65.4515 95.9297 65.4515Z" fill="black"/>
<path id="Vector_32" opacity="0.08" d="M108.554 63.7767C110.103 63.7767 111.358 62.5211 111.358 60.9722C111.358 59.4233 110.103 58.1677 108.554 58.1677C107.005 58.1677 105.749 59.4233 105.749 60.9722C105.749 62.5211 107.005 63.7767 108.554 63.7767Z" fill="black"/>
</g>
</svg>
